<svg xmlns="http://www.w3.org/2000/svg" width="200" height="200" viewBox="0 0 200 200" fill="none">
  <defs>
    <linearGradient id="gear-gradient" x1="0%" y1="0%" x2="100%" y2="100%">
      <stop offset="0%" style="stop-color:#3b82f6;stop-opacity:1" />
      <stop offset="100%" style="stop-color:#1d4ed8;stop-opacity:1" />
    </linearGradient>
  </defs>
  
  <!-- Main gear -->
  <circle cx="100" cy="100" r="45" fill="url(#gear-gradient)" stroke="#1e40af" stroke-width="2"/>
  <circle cx="100" cy="100" r="20" fill="#ffffff" stroke="#1e40af" stroke-width="2"/>
  
  <!-- Gear teeth -->
  <rect x="95" y="40" width="10" height="15" fill="url(#gear-gradient)" rx="2"/>
  <rect x="95" y="145" width="10" height="15" fill="url(#gear-gradient)" rx="2"/>
  <rect x="40" y="95" width="15" height="10" fill="url(#gear-gradient)" rx="2"/>
  <rect x="145" y="95" width="15" height="10" fill="url(#gear-gradient)" rx="2"/>
  
  <!-- Diagonal teeth -->
  <rect x="75" y="55" width="12" height="8" fill="url(#gear-gradient)" rx="2" transform="rotate(45 81 59)"/>
  <rect x="113" y="55" width="12" height="8" fill="url(#gear-gradient)" rx="2" transform="rotate(-45 119 59)"/>
  <rect x="75" y="137" width="12" height="8" fill="url(#gear-gradient)" rx="2" transform="rotate(-45 81 141)"/>
  <rect x="113" y="137" width="12" height="8" fill="url(#gear-gradient)" rx="2" transform="rotate(45 119 141)"/>
  
  <!-- Automation symbols -->
  <path d="M85 85 L90 90 L95 85" stroke="#1e40af" stroke-width="2" fill="none" stroke-linecap="round"/>
  <path d="M105 115 L110 110 L115 115" stroke="#1e40af" stroke-width="2" fill="none" stroke-linecap="round"/>
  
  <!-- Background decoration -->
  <circle cx="60" cy="40" r="3" fill="#94a3b8" opacity="0.6"/>
  <circle cx="140" cy="40" r="2" fill="#94a3b8" opacity="0.4"/>
  <circle cx="160" cy="80" r="2.5" fill="#94a3b8" opacity="0.5"/>
  <circle cx="40" cy="160" r="2" fill="#94a3b8" opacity="0.4"/>
  <circle cx="160" cy="160" r="3" fill="#94a3b8" opacity="0.6"/>
</svg>